<svg id="visual" viewBox="0 0 900 600" width="900" height="600" xmlns="http://www.w3.org/2000/svg"
    xmlns:xlink="http://www.w3.org/1999/xlink" version="1.1">
    <rect x="0" y="0" width="900" height="600" fill="#FFE9CA"></rect>
    <g transform="scale(0.5, 1)">
        <path
            d="M407 0L411.5 16.7C416 33.3 425 66.7 432.3 100C439.7 133.3 445.3 166.7 419.3 200C393.3 233.3 335.7 266.7 328.5 300C321.3 333.3 364.7 366.7 375.2 400C385.7 433.3 363.3 466.7 367.7 500C372 533.3 403 566.7 418.5 583.3L434 600L0 600L0 583.3C0 566.7 0 533.3 0 500C0 466.7 0 433.3 0 400C0 366.7 0 333.3 0 300C0 266.7 0 233.3 0 200C0 166.7 0 133.3 0 100C0 66.7 0 33.3 0 16.7L0 0Z"
            fill="#ffdea7"></path>
        <path
            d="M302 0L307.7 16.7C313.3 33.3 324.7 66.7 328.5 100C332.3 133.3 328.7 166.7 332.3 200C336 233.3 347 266.7 350.3 300C353.7 333.3 349.3 366.7 336 400C322.7 433.3 300.3 466.7 288.3 500C276.3 533.3 274.7 566.7 273.8 583.3L273 600L0 600L0 583.3C0 566.7 0 533.3 0 500C0 466.7 0 433.3 0 400C0 366.7 0 333.3 0 300C0 266.7 0 233.3 0 200C0 166.7 0 133.3 0 100C0 66.7 0 33.3 0 16.7L0 0Z"
            fill="#fed38d"></path>
        <path
            d="M203 0L216.7 16.7C230.3 33.3 257.7 66.7 268.7 100C279.7 133.3 274.3 166.7 275.3 200C276.3 233.3 283.7 266.7 270.7 300C257.7 333.3 224.3 366.7 215.5 400C206.7 433.3 222.3 466.7 225.2 500C228 533.3 218 566.7 213 583.3L208 600L0 600L0 583.3C0 566.7 0 533.3 0 500C0 466.7 0 433.3 0 400C0 366.7 0 333.3 0 300C0 266.7 0 233.3 0 200C0 166.7 0 133.3 0 100C0 66.7 0 33.3 0 16.7L0 0Z"
            fill="#fec773"></path>
        <path
            d="M201 0L186.3 16.7C171.7 33.3 142.3 66.7 141.7 100C141 133.3 169 166.7 176.7 200C184.3 233.3 171.7 266.7 168.7 300C165.7 333.3 172.3 366.7 176.7 400C181 433.3 183 466.7 171.8 500C160.7 533.3 136.3 566.7 124.2 583.3L112 600L0 600L0 583.3C0 566.7 0 533.3 0 500C0 466.7 0 433.3 0 400C0 366.7 0 333.3 0 300C0 266.7 0 233.3 0 200C0 166.7 0 133.3 0 100C0 66.7 0 33.3 0 16.7L0 0Z"
            fill="#fdbb58"></path>
        <path
            d="M59 0L64.2 16.7C69.3 33.3 79.7 66.7 87.5 100C95.3 133.3 100.7 166.7 102.7 200C104.7 233.3 103.3 266.7 96 300C88.7 333.3 75.3 366.7 68.3 400C61.3 433.3 60.7 466.7 63 500C65.3 533.3 70.7 566.7 73.3 583.3L76 600L0 600L0 583.3C0 566.7 0 533.3 0 500C0 466.7 0 433.3 0 400C0 366.7 0 333.3 0 300C0 266.7 0 233.3 0 200C0 166.7 0 133.3 0 100C0 66.7 0 33.3 0 16.7L0 0Z"
            fill="#fcaf3c"></path>
    </g>

    <g transform="translate(900) scale(-0.5, 1.1)">
        <path
            d="M407 0L411.5 16.7C416 33.3 425 66.7 432.3 100C439.7 133.3 445.3 166.7 419.3 200C393.3 233.3 335.7 266.7 328.5 300C321.3 333.3 364.7 366.7 375.2 400C385.7 433.3 363.3 466.7 367.7 500C372 533.3 403 566.7 418.5 583.3L434 600L0 600L0 583.3C0 566.7 0 533.3 0 500C0 466.7 0 433.3 0 400C0 366.7 0 333.3 0 300C0 266.7 0 233.3 0 200C0 166.7 0 133.3 0 100C0 66.7 0 33.3 0 16.7L0 0Z"
            fill="#ffdea7"></path>
        <path
            d="M302 0L307.7 16.7C313.3 33.3 324.7 66.7 328.5 100C332.3 133.3 328.7 166.7 332.3 200C336 233.3 347 266.7 350.3 300C353.7 333.3 349.3 366.7 336 400C322.7 433.3 300.3 466.7 288.3 500C276.3 533.3 274.7 566.7 273.8 583.3L273 600L0 600L0 583.3C0 566.7 0 533.3 0 500C0 466.7 0 433.3 0 400C0 366.7 0 333.3 0 300C0 266.7 0 233.3 0 200C0 166.7 0 133.3 0 100C0 66.7 0 33.3 0 16.7L0 0Z"
            fill="#fed38d"></path>
        <path
            d="M203 0L216.7 16.7C230.3 33.3 257.7 66.7 268.7 100C279.7 133.3 274.3 166.7 275.3 200C276.3 233.3 283.7 266.7 270.7 300C257.7 333.3 224.3 366.7 215.5 400C206.7 433.3 222.3 466.7 225.2 500C228 533.3 218 566.7 213 583.3L208 600L0 600L0 583.3C0 566.7 0 533.3 0 500C0 466.7 0 433.3 0 400C0 366.7 0 333.3 0 300C0 266.7 0 233.3 0 200C0 166.7 0 133.3 0 100C0 66.7 0 33.3 0 16.7L0 0Z"
            fill="#fec773"></path>
        <path
            d="M201 0L186.3 16.7C171.7 33.3 142.3 66.7 141.7 100C141 133.3 169 166.7 176.7 200C184.3 233.3 171.7 266.7 168.7 300C165.7 333.3 172.3 366.7 176.7 400C181 433.3 183 466.7 171.8 500C160.7 533.3 136.3 566.7 124.2 583.3L112 600L0 600L0 583.3C0 566.7 0 533.3 0 500C0 466.7 0 433.3 0 400C0 366.7 0 333.3 0 300C0 266.7 0 233.3 0 200C0 166.7 0 133.3 0 100C0 66.7 0 33.3 0 16.7L0 0Z"
            fill="#fdbb58"></path>
        <path
            d="M59 0L64.2 16.7C69.3 33.3 79.7 66.7 87.5 100C95.3 133.3 100.7 166.7 102.7 200C104.7 233.3 103.3 266.7 96 300C88.7 333.3 75.3 366.7 68.3 400C61.3 433.3 60.7 466.7 63 500C65.3 533.3 70.7 566.7 73.3 583.3L76 600L0 600L0 583.3C0 566.7 0 533.3 0 500C0 466.7 0 433.3 0 400C0 366.7 0 333.3 0 300C0 266.7 0 233.3 0 200C0 166.7 0 133.3 0 100C0 66.7 0 33.3 0 16.7L0 0Z"
            fill="#fcaf3c"></path>
    </g>
</svg>