<svg id="visual" viewBox="0 0 900 600" width="900" height="600" xmlns="http://www.w3.org/2000/svg" xmlns:xlink="http://www.w3.org/1999/xlink" version="1.1"><path d="M0 297L9.3 300C18.7 303 37.3 309 56.2 308.2C75 307.3 94 299.7 112.8 295.5C131.7 291.3 150.3 290.7 169 290.5C187.7 290.3 206.3 290.7 225 292.2C243.7 293.7 262.3 296.3 281.2 297.7C300 299 319 299 337.8 295.7C356.7 292.3 375.3 285.7 394 286.8C412.7 288 431.3 297 450 297.2C468.7 297.3 487.3 288.7 506.2 285.2C525 281.7 544 283.3 562.8 290.2C581.7 297 600.3 309 619 308.8C637.7 308.7 656.3 296.3 675 289.2C693.7 282 712.3 280 731.2 285.2C750 290.3 769 302.7 787.8 303C806.7 303.3 825.3 291.7 844 290.7C862.7 289.7 881.3 299.3 890.7 304.2L900 309" fill="none" stroke="#ff1717" stroke-width="30" stroke-linecap="round" stroke-linejoin="miter"></path></svg>